<svg width="20" height="21" viewBox="0 0 20 21" fill="none" xmlns="http://www.w3.org/2000/svg">
<rect y="0.633789" width="20" height="20" rx="5" fill="#91D5FF"/>
<path fill-rule="evenodd" clip-rule="evenodd" d="M4.70806 14.4814C4.61515 14.5743 4.50485 14.648 4.38345 14.6983C4.26206 14.7485 4.13195 14.7744 4.00056 14.7744C3.73519 14.7744 3.4807 14.669 3.29306 14.4814C3.10542 14.2937 3 14.0392 3 13.7739C3 13.5085 3.10542 13.254 3.29306 13.0664L6.62606 9.73436L6.63306 9.72736C6.90538 9.46064 7.27138 9.31126 7.65256 9.31126C8.03374 9.31126 8.39974 9.46064 8.67206 9.72736L8.67906 9.73436L10.3801 11.4354L12.7271 8.95336L11.6871 7.91336C11.5823 7.80847 11.511 7.67489 11.4821 7.52949C11.4532 7.3841 11.4681 7.2334 11.5248 7.09643C11.5815 6.95947 11.6775 6.84238 11.8007 6.75996C11.9239 6.67754 12.0688 6.63349 12.2171 6.63336H15.8691C16.068 6.63336 16.2587 6.71237 16.3994 6.85303C16.54 6.99368 16.6191 7.18445 16.6191 7.38336V11.0334C16.6189 11.1816 16.5749 11.3265 16.4924 11.4497C16.41 11.5729 16.2929 11.6689 16.156 11.7256C16.019 11.7824 15.8683 11.7972 15.7229 11.7683C15.5775 11.7394 15.4439 11.6681 15.3391 11.5634L14.1421 10.3664L11.4381 13.2264C11.3044 13.3643 11.1449 13.4744 10.9686 13.5504C10.7923 13.6265 10.6027 13.6669 10.4107 13.6694C10.2187 13.6719 10.0281 13.6365 9.84984 13.5651C9.67159 13.4937 9.50922 13.3877 9.37206 13.2534L9.36506 13.2474L7.65206 11.5354L4.70806 14.4814Z" fill="#095190"/>
</svg>
