<svg width="20" height="20" viewBox="0 0 20 20" fill="none" xmlns="http://www.w3.org/2000/svg">
<rect width="20" height="20" rx="5" fill="#FFBE01"/>
<path fill-rule="evenodd" clip-rule="evenodd" d="M4.70806 6.29263C4.52042 6.10498 4.26592 5.99957 4.00056 5.99957C3.73519 5.99957 3.4807 6.10498 3.29306 6.29263C3.10542 6.48027 3 6.73476 3 7.00012C3 7.26549 3.10542 7.51998 3.29306 7.70763L6.62606 11.0396L6.63306 11.0466C6.90538 11.3133 7.27138 11.4627 7.65256 11.4627C8.03374 11.4627 8.39974 11.3133 8.67206 11.0466L8.67906 11.0396L10.3801 9.33862L12.7271 11.8206L11.6871 12.8606C11.5823 12.9655 11.511 13.0991 11.4821 13.2445C11.4532 13.3899 11.4681 13.5406 11.5248 13.6775C11.5815 13.8145 11.6775 13.9316 11.8007 14.014C11.9239 14.0964 12.0688 14.1405 12.2171 14.1406H15.8691C16.068 14.1406 16.2587 14.0616 16.3994 13.921C16.54 13.7803 16.6191 13.5895 16.6191 13.3906V9.73863C16.6189 9.59039 16.5749 9.44551 16.4924 9.32229C16.41 9.19908 16.2929 9.10305 16.156 9.04634C16.019 8.98963 15.8683 8.97478 15.7229 9.00366C15.5775 9.03254 15.4439 9.10387 15.3391 9.20862L14.1421 10.4066L11.4381 7.54563C11.3044 7.40772 11.1449 7.29759 10.9686 7.22155C10.7923 7.14552 10.6027 7.10508 10.4107 7.10258C10.2187 7.10007 10.0281 7.13553 9.84984 7.20693C9.67159 7.27833 9.50922 7.38426 9.37206 7.51863L9.36506 7.52563L7.65206 9.23763L4.70806 6.29263Z" fill="#C04F12"/>
</svg>
