<svg width="20" height="20" viewBox="0 0 20 20" fill="none" xmlns="http://www.w3.org/2000/svg">
<g clip-path="url(#clip0_127_3195)">
<path d="M5.33337 12.6667V10.6667C5.33337 10.4899 5.40361 10.3203 5.52864 10.1953C5.65366 10.0703 5.82323 10 6.00004 10H14C14.1769 10 14.3464 10.0703 14.4714 10.1953C14.5965 10.3203 14.6667 10.4899 14.6667 10.6667V12.6667M10 10V7.33337M13.3334 12.6667H16C16.3682 12.6667 16.6667 12.9652 16.6667 13.3334V16C16.6667 16.3682 16.3682 16.6667 16 16.6667H13.3334C12.9652 16.6667 12.6667 16.3682 12.6667 16V13.3334C12.6667 12.9652 12.9652 12.6667 13.3334 12.6667ZM4.00004 12.6667H6.66671C7.0349 12.6667 7.33337 12.9652 7.33337 13.3334V16C7.33337 16.3682 7.0349 16.6667 6.66671 16.6667H4.00004C3.63185 16.6667 3.33337 16.3682 3.33337 16V13.3334C3.33337 12.9652 3.63185 12.6667 4.00004 12.6667ZM8.66671 3.33337H11.3334C11.7016 3.33337 12 3.63185 12 4.00004V6.66671C12 7.0349 11.7016 7.33337 11.3334 7.33337H8.66671C8.29852 7.33337 8.00004 7.0349 8.00004 6.66671V4.00004C8.00004 3.63185 8.29852 3.33337 8.66671 3.33337Z" stroke="#001A41" stroke-width="1.5" stroke-linecap="round" stroke-linejoin="round"/>
</g>
<defs>
<clipPath id="clip0_127_3195">
<rect width="16" height="16" fill="white" transform="translate(2 2)"/>
</clipPath>
</defs>
</svg>
