<svg width="18" height="19" viewBox="0 0 18 19" fill="none" xmlns="http://www.w3.org/2000/svg">
<path d="M2.25 10.625C2.25 11.0392 2.58579 11.375 3 11.375C3.41421 11.375 3.75 11.0392 3.75 10.625H2.25ZM9 14.75C8.58579 14.75 8.25 15.0858 8.25 15.5C8.25 15.9142 8.58579 16.25 9 16.25V14.75ZM3 7.25C2.58579 7.25 2.25 7.58579 2.25 8C2.25 8.41421 2.58579 8.75 3 8.75V7.25ZM15 8.75C15.4142 8.75 15.75 8.41421 15.75 8C15.75 7.58579 15.4142 7.25 15 7.25V8.75ZM8.25 3.5C8.25 3.08579 7.91421 2.75 7.5 2.75C7.08579 2.75 6.75 3.08579 6.75 3.5H8.25ZM6.75 12.125C6.75 12.5392 7.08579 12.875 7.5 12.875C7.91421 12.875 8.25 12.5392 8.25 12.125H6.75ZM1.5 14C1.08579 14 0.75 14.3358 0.75 14.75C0.75 15.1642 1.08579 15.5 1.5 15.5V14ZM6.75 15.5C7.16421 15.5 7.5 15.1642 7.5 14.75C7.5 14.3358 7.16421 14 6.75 14V15.5ZM5.03033 11.9697C4.73744 11.6768 4.26256 11.6768 3.96967 11.9697C3.67678 12.2626 3.67678 12.7374 3.96967 13.0303L5.03033 11.9697ZM6.75 14.75L7.28033 15.2803C7.57322 14.9874 7.57322 14.5126 7.28033 14.2197L6.75 14.75ZM3.96967 16.4697C3.67678 16.7626 3.67678 17.2374 3.96967 17.5303C4.26256 17.8232 4.73744 17.8232 5.03033 17.5303L3.96967 16.4697ZM3 10.625H3.75V5H3H2.25V10.625H3ZM3 5H3.75C3.75 4.58579 4.08579 4.25 4.5 4.25V3.5V2.75C3.25736 2.75 2.25 3.75736 2.25 5H3ZM4.5 3.5V4.25H13.5V3.5V2.75H4.5V3.5ZM13.5 3.5V4.25C13.9142 4.25 14.25 4.58579 14.25 5H15H15.75C15.75 3.75736 14.7426 2.75 13.5 2.75V3.5ZM15 5H14.25V14H15H15.75V5H15ZM15 14H14.25C14.25 14.4142 13.9142 14.75 13.5 14.75V15.5V16.25C14.7426 16.25 15.75 15.2426 15.75 14H15ZM13.5 15.5V14.75H9V15.5V16.25H13.5V15.5ZM3 8V8.75H15V8V7.25H3V8ZM7.5 3.5H6.75V12.125H7.5H8.25V3.5H7.5ZM1.5 14.75V15.5H6.75V14.75V14H1.5V14.75ZM4.5 12.5L3.96967 13.0303L6.21967 15.2803L6.75 14.75L7.28033 14.2197L5.03033 11.9697L4.5 12.5ZM6.75 14.75L6.21967 14.2197L3.96967 16.4697L4.5 17L5.03033 17.5303L7.28033 15.2803L6.75 14.75Z" fill="#474747"/>
</svg>
