<svg width="16" height="16" viewBox="0 0 16 16" fill="none" xmlns="http://www.w3.org/2000/svg">
<path d="M10.6663 14.6667H11.9997C12.333 14.6667 12.6663 14.5334 12.933 14.2667C13.1997 14 13.333 13.6667 13.333 13.3334V5.00004L9.66634 1.33337H3.99967C3.66634 1.33337 3.33301 1.46671 3.06634 1.73337C2.79967 2.00004 2.66634 2.33337 2.66634 2.66671V4.66671M9.33301 1.33337V5.33337H13.333M6.33301 11.6667L5.33301 10.8334V9.33337M9.33301 10.6667C9.33301 12.8758 7.54215 14.6667 5.33301 14.6667C3.12387 14.6667 1.33301 12.8758 1.33301 10.6667C1.33301 8.45757 3.12387 6.66671 5.33301 6.66671C7.54215 6.66671 9.33301 8.45757 9.33301 10.6667Z" stroke="#001A41" stroke-width="1.5" stroke-linecap="round" stroke-linejoin="round"/>
</svg>
