<svg width="20" height="20" viewBox="0 0 20 20" fill="none" xmlns="http://www.w3.org/2000/svg">
<path d="M7.33333 6.66667H5.33333C4.6 6.66667 4 6.06667 4 5.33333V4V12.6667C4 13.4 4.6 14 5.33333 14H7.33333M10.6667 8.66667H15.3333C15.5101 8.66667 15.6797 8.59643 15.8047 8.4714C15.9298 8.34638 16 8.17681 16 8V6C16 5.82319 15.9298 5.65362 15.8047 5.5286C15.6797 5.40357 15.5101 5.33333 15.3333 5.33333H13.6667C13.5632 5.33333 13.4611 5.30924 13.3685 5.26295C13.276 5.21667 13.1954 5.14946 13.1333 5.06667L12.5333 4.26667C12.4712 4.18387 12.3907 4.11667 12.2981 4.07038C12.2056 4.0241 12.1035 4 12 4H10.6667C10.4899 4 10.3203 4.07024 10.1953 4.19526C10.0702 4.32029 10 4.48986 10 4.66667V8C10 8.17681 10.0702 8.34638 10.1953 8.4714C10.3203 8.59643 10.4899 8.66667 10.6667 8.66667ZM10.6667 16H15.3333C15.5101 16 15.6797 15.9298 15.8047 15.8048C15.9298 15.6797 16 15.5102 16 15.3333V13.3333C16 13.1565 15.9298 12.987 15.8047 12.8619C15.6797 12.7369 15.5101 12.6667 15.3333 12.6667H13.4133C13.2891 12.6675 13.1671 12.6337 13.0611 12.5689C12.955 12.5041 12.8692 12.411 12.8133 12.3L12.52 11.7C12.4641 11.5891 12.3783 11.4959 12.2723 11.4311C12.1663 11.3664 12.0442 11.3325 11.92 11.3333H10.6667C10.4899 11.3333 10.3203 11.4036 10.1953 11.5286C10.0702 11.6536 10 11.8232 10 12V15.3333C10 15.5102 10.0702 15.6797 10.1953 15.8048C10.3203 15.9298 10.4899 16 10.6667 16Z" stroke="white" stroke-width="1.5" stroke-linecap="round" stroke-linejoin="round"/>
</svg>
