<svg width="20" height="20" viewBox="0 0 20 20" fill="none" xmlns="http://www.w3.org/2000/svg">
<path d="M16 13.3333V14.6667C16 15.0203 15.8595 15.3594 15.6095 15.6095C15.3594 15.8595 15.0203 16 14.6667 16H5.33333C4.97971 16 4.64057 15.8595 4.39052 15.6095C4.14048 15.3594 4 15.0203 4 14.6667V13.3333M16 6.66667V5.33333C16 4.97971 15.8595 4.64057 15.6095 4.39052C15.3594 4.14048 15.0203 4 14.6667 4H5.33333C4.97971 4 4.64057 4.14048 4.39052 4.39052C4.14048 4.64057 4 4.97971 4 5.33333V6.66667M5.33333 10C5.33333 10 7.03 6.66667 10 6.66667C12.9693 6.66667 14.6667 10 14.6667 10C14.6667 10 12.9693 13.3333 10 13.3333C7.03 13.3333 5.33333 10 5.33333 10ZM10 10.6667C10.1768 10.6667 10.3464 10.5964 10.4714 10.4714C10.5964 10.3464 10.6667 10.1768 10.6667 10C10.6667 9.82319 10.5964 9.65362 10.4714 9.5286C10.3464 9.40357 10.1768 9.33333 10 9.33333C9.82319 9.33333 9.65362 9.40357 9.5286 9.5286C9.40357 9.65362 9.33333 9.82319 9.33333 10C9.33333 10.1768 9.40357 10.3464 9.5286 10.4714C9.65362 10.5964 9.82319 10.6667 10 10.6667Z" stroke="#001A41" stroke-width="1.5" stroke-linecap="round" stroke-linejoin="round"/>
</svg>
