<svg width="185" height="66" viewBox="0 0 185 66" fill="none" xmlns="http://www.w3.org/2000/svg">
<path d="M39.994 43.728C39.224 43.728 38.52 43.6693 37.882 43.552C37.244 43.442 36.6353 43.2 36.056 42.826C35.484 42.452 34.901 41.8727 34.307 41.088C33.933 41.1393 33.6103 41.1723 33.339 41.187C33.075 41.209 32.8037 41.22 32.525 41.22C30.985 41.22 29.6503 40.89 28.521 40.23C27.399 39.57 26.53 38.6313 25.914 37.414C25.298 36.1967 24.99 34.752 24.99 33.08C24.99 31.4007 25.3017 29.9487 25.925 28.724C26.5483 27.492 27.4247 26.5423 28.554 25.875C29.6833 25.2077 31.007 24.874 32.525 24.874C34.0357 24.874 35.352 25.2077 36.474 25.875C37.6033 26.5423 38.476 27.492 39.092 28.724C39.7153 29.9487 40.027 31.4007 40.027 33.08C40.027 34.4513 39.818 35.6687 39.4 36.732C38.9893 37.788 38.3807 38.6937 37.574 39.449C37.7133 39.8303 38.0103 40.1457 38.465 40.395C38.9197 40.637 39.4293 40.7617 39.994 40.769V43.728ZM32.525 38.184C33.5957 38.184 34.4317 37.799 35.033 37.029C35.6417 36.259 35.946 34.9537 35.946 33.113C35.946 31.243 35.638 29.9083 35.022 29.109C34.4133 28.3097 33.581 27.91 32.525 27.91C31.4617 27.91 30.6257 28.3097 30.017 29.109C29.4157 29.9083 29.115 31.2467 29.115 33.124C29.115 34.9573 29.412 36.259 30.006 37.029C30.6073 37.799 31.447 38.184 32.525 38.184ZM54.0051 41.22C52.4651 41.22 51.1304 40.89 50.0011 40.23C48.8791 39.5627 48.0101 38.6203 47.3941 37.403C46.7781 36.1857 46.4701 34.7447 46.4701 33.08C46.4701 31.4007 46.7817 29.9487 47.4051 28.724C48.0284 27.4993 48.9047 26.5533 50.0341 25.886C51.1707 25.2113 52.4944 24.874 54.0051 24.874C55.5157 24.874 56.8284 25.2113 57.9431 25.886C59.0651 26.5533 59.9341 27.4993 60.5501 28.724C61.1734 29.9487 61.4851 31.4007 61.4851 33.08C61.4851 34.7447 61.1807 36.1857 60.5721 37.403C59.9634 38.6203 59.0981 39.5627 57.9761 40.23C56.8541 40.89 55.5304 41.22 54.0051 41.22ZM54.0051 38.184C54.6871 38.184 55.2847 38.019 55.7981 37.689C56.3114 37.3517 56.7074 36.8127 56.9861 36.072C57.2721 35.3313 57.4151 34.3523 57.4151 33.135C57.4151 31.881 57.2721 30.8727 56.9861 30.11C56.7001 29.34 56.3004 28.7827 55.7871 28.438C55.2737 28.086 54.6797 27.91 54.0051 27.91C53.3231 27.91 52.7254 28.086 52.2121 28.438C51.6987 28.79 51.2954 29.351 51.0021 30.121C50.7161 30.8837 50.5731 31.8883 50.5731 33.135C50.5731 34.3523 50.7161 35.3313 51.0021 36.072C51.2954 36.8127 51.6987 37.3517 52.2121 37.689C52.7254 38.019 53.3231 38.184 54.0051 38.184ZM74.9111 41.22C74.1044 41.22 73.3124 41.121 72.5351 40.923C71.7578 40.7177 71.0428 40.4133 70.3901 40.01C69.7448 39.5993 69.2131 39.086 68.7951 38.47C68.3771 37.854 68.1314 37.1317 68.0581 36.303H71.8861C71.9814 36.7357 72.1684 37.1023 72.4471 37.403C72.7258 37.6963 73.0924 37.9237 73.5471 38.085C74.0018 38.239 74.5298 38.316 75.1311 38.316C75.5564 38.316 75.9708 38.261 76.3741 38.151C76.7774 38.0337 77.1111 37.8503 77.3751 37.601C77.6391 37.3517 77.7711 37.0217 77.7711 36.611C77.7711 36.1123 77.5768 35.753 77.1881 35.533C76.7994 35.3057 76.3044 35.1297 75.7031 35.005L72.8541 34.433C71.9594 34.257 71.1858 33.9783 70.5331 33.597C69.8878 33.2157 69.3891 32.7133 69.0371 32.09C68.6924 31.4667 68.5201 30.715 68.5201 29.835C68.5201 28.801 68.8061 27.9173 69.3781 27.184C69.9501 26.4433 70.7238 25.8787 71.6991 25.49C72.6818 25.094 73.7854 24.896 75.0101 24.896C76.3594 24.896 77.5071 25.1087 78.4531 25.534C79.3991 25.9593 80.1214 26.546 80.6201 27.294C81.1188 28.0347 81.3791 28.8743 81.4011 29.813H77.6611C77.6171 29.3363 77.4741 28.955 77.2321 28.669C76.9901 28.3757 76.6711 28.1593 76.2751 28.02C75.8791 27.8807 75.4208 27.811 74.9001 27.811C74.0274 27.811 73.4004 27.9797 73.0191 28.317C72.6378 28.6543 72.4471 29.0283 72.4471 29.439C72.4471 29.8497 72.5974 30.187 72.8981 30.451C73.1988 30.715 73.6974 30.913 74.3941 31.045L76.9571 31.54C78.0278 31.7233 78.8968 32.035 79.5641 32.475C80.2388 32.9077 80.7338 33.443 81.0491 34.081C81.3718 34.7117 81.5331 35.4267 81.5331 36.226C81.5331 37.2233 81.2434 38.096 80.6641 38.844C80.0921 39.592 79.3111 40.175 78.3211 40.593C77.3311 41.011 76.1944 41.22 74.9111 41.22ZM88.4999 41V25.094H94.0219L97.1239 35.61L100.259 25.094H105.748V41H101.986V29.153L98.5209 41H95.7269L92.2619 29.186V41H88.4999ZM120.314 41.22C118.774 41.22 117.44 40.89 116.31 40.23C115.188 39.5627 114.319 38.6203 113.703 37.403C113.087 36.1857 112.779 34.7447 112.779 33.08C112.779 31.4007 113.091 29.9487 113.714 28.724C114.338 27.4993 115.214 26.5533 116.343 25.886C117.48 25.2113 118.804 24.874 120.314 24.874C121.825 24.874 123.138 25.2113 124.252 25.886C125.374 26.5533 126.243 27.4993 126.859 28.724C127.483 29.9487 127.794 31.4007 127.794 33.08C127.794 34.7447 127.49 36.1857 126.881 37.403C126.273 38.6203 125.407 39.5627 124.285 40.23C123.163 40.89 121.84 41.22 120.314 41.22ZM120.314 38.184C120.996 38.184 121.594 38.019 122.107 37.689C122.621 37.3517 123.017 36.8127 123.295 36.072C123.581 35.3313 123.724 34.3523 123.724 33.135C123.724 31.881 123.581 30.8727 123.295 30.11C123.009 29.34 122.61 28.7827 122.096 28.438C121.583 28.086 120.989 27.91 120.314 27.91C119.632 27.91 119.035 28.086 118.521 28.438C118.008 28.79 117.605 29.351 117.311 30.121C117.025 30.8837 116.882 31.8883 116.882 33.135C116.882 34.3523 117.025 35.3313 117.311 36.072C117.605 36.8127 118.008 37.3517 118.521 37.689C119.035 38.019 119.632 38.184 120.314 38.184Z" fill="#5D88F5"/>
<circle cx="161" cy="33" r="0.833333" stroke="#4B465C" stroke-width="1.5" stroke-linecap="round" stroke-linejoin="round"/>
<circle cx="161" cy="33" r="0.833333" stroke="white" stroke-opacity="0.2" stroke-width="1.5" stroke-linecap="round" stroke-linejoin="round"/>
<circle cx="161" cy="33" r="7.5" stroke="#4B465C" stroke-width="1.5" stroke-linecap="round" stroke-linejoin="round"/>
<circle cx="161" cy="33" r="7.5" stroke="white" stroke-opacity="0.2" stroke-width="1.5" stroke-linecap="round" stroke-linejoin="round"/>
</svg>
