<svg width="48" height="27" viewBox="0 0 48 27" fill="none" xmlns="http://www.w3.org/2000/svg">
<path d="M34.0054 6.75684C30.6712 6.75684 27.9678 9.40407 27.9678 12.6631C27.9678 15.9222 30.6712 18.5694 34.0054 18.5694C37.3395 18.5694 40.043 15.9222 40.043 12.6631C40.043 9.40407 37.3523 6.75684 34.0054 6.75684ZM33.696 8.64719C35.8588 8.64719 37.5965 10.3293 37.5965 12.4158C37.5965 14.5024 35.8459 16.1844 33.696 16.1844C31.5461 16.1844 29.7955 14.5024 29.7955 12.4158C29.7955 10.3293 31.5332 8.64719 33.696 8.64719Z" fill="#5C5C5C"/>
<path d="M38.06 0.263018C37.8672 0.263018 37.712 0.341124 37.545 0.458283C37.3393 0.601477 37.1585 0.836725 37.0557 1.07104C36.5021 2.25751 35.9871 3.39191 35.4722 4.52631C35.3436 4.79968 35.2023 5.11303 34.97 5.32131C34.8286 5.45149 34.6864 5.56865 34.5064 5.51658C34.3137 5.46451 34.2494 5.37339 34.1842 5.17719C34.0943 4.94287 34.1071 4.47331 34.0814 4.21202C34.03 3.71642 34.0943 3.2078 33.9657 2.72522C33.9015 2.50392 33.7087 1.9953 33.3993 1.98228C32.9229 1.95625 32.5888 2.68617 32.3822 3.09064C31.9058 4.04279 31.7516 5.1121 31.7644 6.65005C31.7644 6.81928 31.7773 7.14565 31.7773 7.14565C31.7773 7.14565 32.4465 6.91133 32.7815 6.84531C32.9743 6.80626 33.1809 6.78023 33.3865 6.75419C33.5921 6.72815 33.7987 6.72815 34.0043 6.72815C34.2099 6.72815 34.4165 6.74117 34.6221 6.75419C34.8277 6.78023 35.0214 6.80626 35.227 6.84531C35.6264 6.92342 35.9991 7.04058 36.3598 7.1847C36.7206 7.3279 37.0676 7.51108 37.3898 7.73238C37.712 7.94066 38.0076 8.18892 38.2913 8.44928C38.5612 8.70963 38.8063 9.00997 39.0248 9.32332C39.2432 9.63668 39.4241 9.97514 39.5783 10.3275C39.7325 10.68 39.8482 11.0575 39.9262 11.4359C39.9648 11.6312 40.0033 11.8274 40.0162 12.0226C40.0419 12.2179 40.0419 12.4271 40.0419 12.6224C40.0419 12.8307 40.029 13.0269 40.0162 13.2221C39.9905 13.4174 39.9648 13.6136 39.9262 13.8088C39.8491 14.1873 39.7206 14.5648 39.5783 14.9172C39.514 15.0604 39.4498 15.1906 39.3855 15.3217L39.4626 15.3347C40.1447 15.4779 40.8011 15.543 41.5097 15.5039C42.5911 15.4388 43.7239 15.3738 44.6768 14.8521C44.999 14.6699 45.4231 14.4086 45.436 14.0441C45.4488 13.7047 45.1138 13.4574 44.831 13.2751C44.5483 13.0929 44.1233 13.0799 43.7882 13.0278C43.2989 12.9627 42.8739 13.0148 42.346 12.9627C41.921 12.9106 41.2775 12.8325 41.1875 12.376C41.0976 11.9455 41.6254 11.581 41.9339 11.2806C42.5517 10.6679 43.3365 10.2504 44.0195 9.70269C44.8044 9.07692 45.5645 8.50321 46.2723 7.78631C46.5036 7.56501 46.723 7.38183 46.8901 7.10846C47.0057 6.91319 47.1599 6.61286 47.1342 6.37854C47.1214 6.22233 47.0443 6.11818 46.9158 6.02613C46.7101 5.88294 46.4907 5.90897 46.2466 5.90897C45.9895 5.90897 45.783 5.97406 45.5388 6.05216C44.8824 6.28648 44.2646 6.62587 43.634 6.93923C43.1704 7.17355 42.7582 7.52595 42.2698 7.66915C41.9733 7.74725 41.5364 7.95553 41.3427 7.7082C41.1499 7.47388 41.4455 7.10846 41.5612 6.82114C41.8053 6.24743 42.1918 5.73881 42.514 5.20416C42.8748 4.60441 43.3118 4.05674 43.6468 3.44398C43.8139 3.14364 44.0204 2.84424 44.0718 2.50485C44.1104 2.25751 44.1232 1.98321 44.0076 1.76191C43.9433 1.63173 43.8277 1.52759 43.6854 1.48854C43.4412 1.42345 43.1704 1.54061 42.9262 1.64475C42.5783 1.80096 42.1285 2.14035 41.8705 2.41372C40.9948 3.33984 40.287 4.16088 39.4507 5.02191C39.167 5.32224 38.7815 5.84295 38.4079 5.67372C38.1508 5.55656 38.2022 5.12605 38.2408 4.85268C38.3436 4.0056 38.5245 3.13156 38.6144 2.25751C38.6658 1.85303 38.7429 1.41043 38.7172 1.03199C38.7044 0.823707 38.6787 0.627512 38.5502 0.458283C38.4602 0.341124 38.2931 0.276035 38.1508 0.25C38.1114 0.263018 38.0857 0.263018 38.06 0.263018ZM33.6958 8.64733C33.426 8.64733 33.168 8.67337 32.911 8.72544C32.6539 8.77751 32.4088 8.8426 32.1775 8.93372L32.1646 8.94674L32.1775 8.97277C32.6154 10.1332 33.1304 11.3197 33.9281 12.2718C34.7258 13.224 35.7687 13.9929 36.8758 14.5797L36.9015 14.5927C36.9143 14.5667 36.9272 14.5536 36.94 14.5276C37.0814 14.3323 37.197 14.1101 37.3008 13.8888C37.4036 13.6675 37.4807 13.4323 37.5321 13.1849C37.5835 12.9376 37.6092 12.6893 37.6092 12.429C37.6092 12.1686 37.5835 11.9203 37.5321 11.673C37.4807 11.4257 37.4036 11.1904 37.3008 10.9691C37.198 10.7478 37.0823 10.5256 36.94 10.3303C36.7986 10.1351 36.6435 9.95189 36.4636 9.76964C36.2836 9.60041 36.09 9.44327 35.8843 9.30008C35.6787 9.1699 35.4593 9.05274 35.2151 8.94767C34.9838 8.85654 34.7387 8.77844 34.4816 8.72637C34.2237 8.67337 33.9667 8.64733 33.6958 8.64733Z" fill="#D51100"/>
<path d="M39.3856 15.3621C39.4627 15.2319 39.5141 15.1017 39.5784 14.9576C39.7326 14.6052 39.8483 14.2277 39.9263 13.8492C39.9649 13.654 40.0034 13.4578 40.0163 13.2625C40.042 13.0673 40.042 12.858 40.042 12.6628C40.042 12.4545 40.0291 12.2583 40.0163 12.063C39.9906 11.8678 39.9649 11.6716 39.9263 11.4763C39.8492 11.0979 39.7207 10.7203 39.5784 10.3679C39.4242 10.0155 39.2433 9.67708 39.0248 9.36372C38.8064 9.05037 38.5613 8.76398 38.2914 8.48968C38.0215 8.22932 37.7121 7.98106 37.3899 7.77278C37.0677 7.56449 36.7335 7.38132 36.3599 7.2251C35.9992 7.08191 35.6136 6.96475 35.2271 6.88571C35.0344 6.84666 34.8278 6.82063 34.6222 6.79459C34.4166 6.76855 34.21 6.76855 34.0044 6.76855C33.7987 6.76855 33.5922 6.78157 33.3866 6.79459C33.1809 6.82063 32.9872 6.84666 32.7816 6.88571C32.4466 6.9508 32.0867 7.05494 31.7773 7.1721C31.8159 7.65469 31.9444 8.39762 32.151 8.9453H32.1638C32.3951 8.85417 32.6402 8.77607 32.8973 8.724C33.1543 8.67193 33.4123 8.64589 33.6822 8.64589C33.9521 8.64589 34.21 8.67193 34.467 8.724C34.7241 8.77607 34.9692 8.85417 35.2005 8.9453C35.4318 9.03642 35.6512 9.15358 35.8697 9.28469C36.0754 9.41486 36.269 9.57108 36.449 9.75425C36.6289 9.92348 36.784 10.1067 36.9254 10.3149C37.0668 10.5102 37.1824 10.7324 37.2862 10.9537C37.3899 11.175 37.4661 11.4103 37.5175 11.6576C37.5689 11.905 37.5946 12.1532 37.5946 12.4136C37.5946 12.6739 37.5689 12.9222 37.5175 13.1695C37.4661 13.4169 37.389 13.6521 37.2862 13.8734C37.1834 14.0947 37.0677 14.3169 36.9254 14.5122C36.9126 14.5382 36.8997 14.5513 36.874 14.5773C37.7121 14.9706 38.6136 15.2049 39.3856 15.3621Z" fill="white"/>
<path d="M9.32759 12.7021C9.08341 12.7021 8.87686 12.9104 8.87686 13.1717V18.4002C8.87686 18.6605 9.06964 18.8697 9.32759 18.8697C9.57178 18.8697 9.77833 18.6615 9.77833 18.4002V13.1717C9.77833 12.9104 9.58555 12.7021 9.32759 12.7021ZM11.091 12.7021C10.8469 12.7021 10.6403 12.9104 10.6403 13.1717V18.4002C10.6403 18.6605 10.8459 18.8697 11.091 18.8697C11.3352 18.8697 11.5418 18.6615 11.5418 18.4002V17.7353L12.2367 17.0575L13.6265 18.7265C13.755 18.8958 14.0901 18.8958 14.2443 18.7526C14.4114 18.5964 14.3857 18.283 14.2572 18.1138L12.9188 16.4057L14.2058 15.1541C14.4114 14.9458 14.36 14.6715 14.1929 14.5283C13.9744 14.3461 13.7293 14.3982 13.5623 14.5544L11.528 16.4708V13.1717C11.5289 12.9104 11.3361 12.7021 11.091 12.7021ZM0.523191 13.0546C0.30471 13.0546 0.136719 13.2368 0.136719 13.4721C0.136719 13.7064 0.303792 13.8895 0.523191 13.8895H2.09386V18.4402C2.09386 18.6875 2.28664 18.8707 2.5446 18.8707C2.78878 18.8707 2.99533 18.6754 2.99533 18.4402V13.8895H4.61741C4.83589 13.8895 5.00388 13.7073 5.00388 13.4721C5.00388 13.2377 4.83681 13.0546 4.61741 13.0546H0.523191ZM16.7422 14.3712C15.468 14.3712 14.438 15.3884 14.438 16.653C14.438 17.9176 15.468 18.9348 16.7422 18.9348C18.0163 18.9348 19.0463 17.9176 19.0463 16.653C19.0463 15.3884 18.0173 14.3712 16.7422 14.3712ZM24.479 14.3972C24.3504 14.3972 24.2091 14.4103 24.0796 14.4363C23.8483 14.4884 23.616 14.5795 23.4104 14.6966C23.2433 14.7878 22.9597 15.01 22.9597 15.01C22.9597 15.01 22.6632 14.5925 22.1234 14.4493C22.0077 14.4233 21.8792 14.3842 21.7498 14.3842C21.5313 14.3842 21.2862 14.3972 21.0806 14.4753C20.8364 14.5665 20.4242 14.8928 20.4242 14.8928V14.8668C20.4242 14.6065 20.2314 14.4493 19.9735 14.4493C19.6641 14.4493 19.5227 14.6576 19.5227 14.9189V18.4002C19.5227 18.6605 19.7155 18.8697 19.9735 18.8697C20.2305 18.8697 20.4242 18.6615 20.4242 18.4002V16.1704C20.4242 15.8441 20.6298 15.5577 20.9006 15.3754C21.0163 15.2973 21.2229 15.2713 21.3514 15.2583C21.5056 15.2452 21.6341 15.2452 21.8535 15.2973C22.1106 15.3754 22.3942 15.6888 22.3942 16.1714V18.4011C22.3942 18.6615 22.587 18.8707 22.8449 18.8707C23.0891 18.8707 23.2957 18.6624 23.2957 18.4011V16.0672C23.2957 15.8329 23.527 15.5456 23.7078 15.4154C23.8749 15.2982 24.0815 15.2462 24.2871 15.2462C24.4542 15.2462 24.6222 15.2462 24.7764 15.3633C24.892 15.4414 25.0077 15.5716 25.0729 15.7027C25.15 15.8459 25.1886 15.898 25.1886 16.0681V16.0942V18.402C25.1886 18.6624 25.3813 18.8716 25.6393 18.8716C25.8835 18.8716 26.09 18.6243 26.09 18.402V15.925C26.09 15.4684 25.9358 15.2211 25.8064 15.0509C25.6778 14.8817 25.497 14.7636 25.3299 14.6464C25.1886 14.5553 25.0334 14.4902 24.8663 14.4512C24.736 14.4233 24.6075 14.3972 24.479 14.3972ZM6.31568 14.4103C4.97726 14.4103 4.1272 15.4275 4.1272 16.6921C4.1272 17.9566 5.06722 18.9348 6.34139 18.9348C7.26855 18.9348 7.6284 18.7786 8.01487 18.3741C8.14339 18.244 8.27191 17.8785 8.06628 17.6833C7.91206 17.5271 7.61555 17.5791 7.49988 17.6703C7.15197 17.9306 6.80497 18.1138 6.32854 18.1138C5.65932 18.1138 5.15718 17.6312 5.13148 17.0705H7.66696C7.96347 17.0705 8.07913 16.9924 8.18195 16.9143C8.25906 16.8492 8.36187 16.6409 8.36187 16.5359C8.36279 15.4145 7.58985 14.4103 6.31568 14.4103ZM16.7422 15.1792C17.527 15.1792 18.1577 15.8441 18.1577 16.666C18.1577 17.488 17.527 18.1659 16.7422 18.1659C15.9573 18.1659 15.3266 17.501 15.3266 16.666C15.3266 15.845 15.9573 15.1792 16.7422 15.1792ZM6.26428 15.1922C7.02345 15.1922 7.37137 15.7399 7.37137 16.2225H5.11863C5.11863 15.7529 5.51795 15.1922 6.26428 15.1922Z" fill="#171717"/>
<path d="M14.5152 20.0566C14.2839 20.0566 14.0902 20.2519 14.0902 20.4872V22.3905C13.7937 21.986 13.3439 21.6736 12.6352 21.6997C11.361 21.7517 10.4339 22.5997 10.4339 23.9685C10.4339 25.233 11.3096 26.2112 12.5838 26.2112C13.3173 26.2112 13.7937 25.8588 14.1031 25.4422V25.7426C14.1031 25.9899 14.2958 26.1731 14.5281 26.1731C14.7594 26.1731 14.9531 25.9778 14.9531 25.7426V20.4881C14.9403 20.2519 14.7475 20.0566 14.5152 20.0566ZM4.60374 20.2649C4.37241 20.2649 4.17871 20.4732 4.17871 20.7215V25.7026C4.17871 25.9629 4.37149 26.1591 4.60374 26.1591C4.83599 26.1591 5.02877 25.9509 5.02877 25.7026V20.7215C5.04162 20.4741 4.84792 20.2649 4.60374 20.2649ZM31.173 21.6736C30.8765 21.6866 30.5681 21.7257 30.2972 21.8559C30.0788 21.96 29.8851 22.1292 29.7566 22.3385C29.6409 22.5337 29.5638 22.7559 29.5766 22.9903C29.5766 23.2116 29.6537 23.4468 29.7823 23.6421C29.9108 23.8243 30.1173 23.9554 30.3101 24.0596C30.58 24.2028 30.8893 24.2548 31.173 24.3729C31.4043 24.451 31.6623 24.4771 31.8422 24.6333C31.945 24.7244 32.035 24.8676 32.035 25.0117C32.035 25.1679 31.945 25.299 31.8294 25.3902C31.7008 25.5073 31.4686 25.5203 31.2887 25.5203C31.083 25.5203 30.9151 25.4943 30.7223 25.4292C30.5938 25.3902 30.4781 25.3251 30.3615 25.273C30.2587 25.2209 30.1687 25.1558 30.065 25.1168C29.9622 25.0777 29.8594 24.9996 29.7556 25.0257C29.64 25.0517 29.5372 25.1559 29.4986 25.26C29.46 25.3511 29.4729 25.4162 29.5114 25.5073C29.5629 25.6245 29.6657 25.7286 29.7685 25.8077C29.9227 25.9248 30.155 26.029 30.3477 26.081C30.6314 26.1722 30.8884 26.2242 31.184 26.2112C31.4934 26.2112 31.8018 26.1852 32.0983 26.081C32.3682 25.9769 32.5491 25.8207 32.7033 25.5854C32.8447 25.3641 32.8961 25.1549 32.8832 24.8815C32.8704 24.6993 32.8704 24.4901 32.7804 24.3339C32.6776 24.1646 32.5105 24.0205 32.3425 23.9034C32.1112 23.7472 31.8789 23.6951 31.6219 23.59C31.4163 23.5119 31.2097 23.4338 31.017 23.3427C30.8884 23.2906 30.7471 23.2515 30.6433 23.1604C30.5662 23.0823 30.502 22.9782 30.502 22.8601C30.502 22.7299 30.5919 22.6128 30.6819 22.5337C30.8104 22.4296 30.9912 22.4035 31.1455 22.4035C31.2868 22.4035 31.4548 22.4426 31.5962 22.4947C31.7247 22.5337 31.8275 22.6118 31.9441 22.6639C32.0855 22.716 32.214 22.8071 32.3691 22.7941C32.4977 22.7941 32.6657 22.7811 32.7428 22.6639C32.807 22.5598 32.7813 22.4035 32.7299 22.2855C32.6656 22.1553 32.5243 22.0511 32.3948 21.9721C32.2278 21.868 32.0469 21.8289 31.8542 21.7638C31.6494 21.6997 31.4172 21.6736 31.173 21.6736ZM17.7594 21.6866C16.4852 21.6866 15.4552 22.7039 15.4552 23.9685C15.4552 25.233 16.4852 26.2503 17.7594 26.2503C19.0336 26.2503 20.0635 25.233 20.0635 23.9685C20.0635 22.7029 19.0336 21.6866 17.7594 21.6866ZM27.2596 21.6866C25.9212 21.6866 25.0583 22.7039 25.0583 23.9685C25.0583 25.233 25.9983 26.2112 27.2725 26.2112C28.1996 26.2112 28.5595 26.055 28.946 25.6505C29.0745 25.5203 29.203 25.1679 28.9974 24.9597C28.8432 24.8034 28.5466 24.8555 28.431 24.9466C28.0831 25.207 27.7361 25.3902 27.2596 25.3902C26.5904 25.3902 26.0883 24.9076 26.0626 24.3469H28.5981C28.8946 24.3469 29.0102 24.2688 29.113 24.1907C29.1902 24.1256 29.293 23.9173 29.293 23.8122C29.3067 22.7029 28.5209 21.6866 27.2596 21.6866ZM36.8884 21.7127C36.5919 21.7127 36.2834 21.7387 35.9998 21.8298C35.8456 21.8819 35.6776 21.947 35.5619 22.0772C35.4719 22.1683 35.3948 22.3115 35.4077 22.4296C35.4205 22.5467 35.4848 22.6379 35.639 22.6899C35.9089 22.7811 36.0897 22.6118 36.4624 22.5077C36.8746 22.3905 37.4153 22.4035 37.7495 22.6639C37.9808 22.8461 38.0717 23.4198 38.0845 23.498C37.9946 23.4719 37.8789 23.4329 37.788 23.4198C37.5695 23.3808 37.3501 23.3808 37.1317 23.3808C36.8489 23.3808 36.5524 23.3808 36.2825 23.4459C36.0126 23.511 35.729 23.563 35.5105 23.7462C35.3177 23.9155 35.1754 24.1637 35.0983 24.398C35.0084 24.6844 35.0212 25.0759 35.1369 25.3502C35.2654 25.6635 35.5105 25.8328 35.7932 25.989C36.0631 26.1452 36.3982 26.2103 36.7204 26.2103C37.1069 26.2103 37.5053 26.0931 37.8146 25.8839C37.9303 25.8058 38.0845 25.5706 38.0845 25.5706V25.7658C38.0717 26.0001 38.2773 26.1963 38.5096 26.1963C38.7409 26.1963 38.9346 26.0011 38.9346 25.7658V24.6054C38.9346 24.6054 38.9346 23.484 38.8446 22.9103C38.8061 22.6369 38.6004 22.3626 38.4067 22.1804C38.2397 22.0112 38.0588 21.933 37.866 21.867C37.5576 21.7517 37.2235 21.7127 36.8884 21.7127ZM8.04068 21.7257C7.86075 21.7257 7.64135 21.7517 7.51284 21.7908C7.24295 21.8819 6.80507 22.1953 6.80507 22.1953V22.1692C6.80507 22.013 6.75366 21.7517 6.38004 21.7517C6.07068 21.7517 5.98072 21.9991 5.98072 22.2603V25.7416C5.98072 26.002 6.17349 26.2112 6.43145 26.2112C6.67563 26.2112 6.88218 26.0029 6.88218 25.7416V23.5119C6.88218 23.1855 7.08781 22.8991 7.35861 22.7169C7.47428 22.6388 7.68083 22.6128 7.80935 22.5867C7.96357 22.5737 8.09209 22.5737 8.31148 22.6258C8.56852 22.7039 8.94214 23.0172 8.94214 23.4998V25.7296C8.94214 25.9899 9.13492 26.1991 9.39287 26.1991C9.63706 26.1991 9.8436 25.9908 9.8436 25.7296V23.4217C9.8436 22.9131 9.70223 22.5746 9.50854 22.3133C9.30291 22.053 8.94214 21.8568 8.61993 21.7657H8.59422C8.46571 21.7396 8.33719 21.7266 8.20775 21.7266C8.15634 21.7257 8.09209 21.7257 8.04068 21.7257ZM22.7413 21.7257C22.5614 21.7257 22.342 21.7517 22.2135 21.7908C21.9436 21.8819 21.5057 22.1953 21.5057 22.1953V22.1692C21.5057 22.013 21.4543 21.7517 21.0807 21.7517C20.7713 21.7517 20.6813 21.9991 20.6813 22.2603V25.7416C20.6813 26.002 20.8741 26.2112 21.1321 26.2112C21.3763 26.2112 21.5828 26.0029 21.5828 25.7416V23.5119C21.5828 23.1855 21.7884 22.8991 22.0592 22.7169C22.1749 22.6388 22.3815 22.6128 22.51 22.5867C22.6642 22.5737 22.7927 22.5737 23.0121 22.6258C23.2691 22.7039 23.6428 23.0172 23.6428 23.4998V25.7296C23.6428 25.9899 23.8355 26.1991 24.0935 26.1991C24.3377 26.1991 24.5442 25.9908 24.5442 25.7296V23.4217C24.5442 22.9131 24.4029 22.5746 24.2092 22.3133C24.0035 22.053 23.6428 21.8568 23.3206 21.7657H23.2949C23.1663 21.7396 23.0378 21.7266 22.9084 21.7266C22.8698 21.7257 22.8056 21.7257 22.7413 21.7257ZM34.005 21.7517C33.7737 21.7517 33.58 21.947 33.58 22.1822V25.7416C33.58 25.976 33.7727 26.1722 34.005 26.1722C34.2363 26.1722 34.43 25.9769 34.43 25.7416V22.1822C34.43 21.947 34.2363 21.7517 34.005 21.7517ZM27.1954 22.4816C27.9545 22.4816 28.3025 23.0293 28.3025 23.5119H26.0497C26.0626 23.0423 26.4619 22.4816 27.1954 22.4816ZM17.7465 22.4947C18.5314 22.4947 19.1621 23.1595 19.1621 23.9815C19.1621 24.8025 18.5314 25.4813 17.7465 25.4813C16.9617 25.4813 16.331 24.8165 16.331 23.9815C16.331 23.1595 16.9617 22.4947 17.7465 22.4947ZM12.6747 22.5077C13.4595 22.5077 14.0902 23.1725 14.0902 23.9945C14.0902 24.8165 13.4853 25.4023 12.7004 25.4023C11.9155 25.4023 11.3105 24.8155 11.3105 23.9945C11.3105 23.1725 11.8898 22.5077 12.6747 22.5077ZM36.9269 24.0335C37.1711 24.0205 37.4291 24.0466 37.6733 24.0856C37.7889 24.0986 37.9698 24.1377 38.1111 24.1637C38.1111 24.1898 38.1368 24.5552 38.0726 24.7244C37.9826 24.9587 37.8413 25.22 37.6219 25.3502C37.3905 25.4934 37.0683 25.5194 36.7984 25.5194C36.5799 25.5194 36.3477 25.4673 36.1806 25.3372C36.0135 25.22 35.9236 25.0498 35.9107 24.8546C35.8979 24.6203 35.9493 24.398 36.1292 24.2418C36.3348 24.0596 36.6571 24.0466 36.9269 24.0335Z" fill="#171717"/>
</svg>
