<svg width="80" height="25" viewBox="0 0 80 25" fill="none" xmlns="http://www.w3.org/2000/svg">
<path d="M27.4176 8.28809L27.167 9.77823H29.185L28.0193 16.7151H29.4144L30.5801 9.77823H32.5982L32.8488 8.28809H27.4176Z" fill="black"/>
<path d="M33.1999 8.28809L31.7832 16.7151H36.8521L37.1024 15.2244H33.4012L33.7681 13.0415H37.0228L37.2734 11.5507H34.0185L34.3164 9.77823H37.8597L38.1102 8.28809H33.1999Z" fill="black"/>
<path d="M38.9239 8.28809L37.5078 16.7151H42.2225L42.4796 15.1892H39.1591L40.3194 8.28809H38.9239Z" fill="black"/>
<path d="M44.2329 8.28809L42.8164 16.7151H44.2111L44.691 13.8629L45.4841 13.018L46.9273 16.7151H48.7221L46.6752 11.7386L49.9809 8.28809H48.1759L45.0518 11.7151L45.6278 8.28809H44.2329Z" fill="black"/>
<path fill-rule="evenodd" clip-rule="evenodd" d="M53.0531 9.5546C54.2069 9.5546 54.6832 10.7046 54.3828 12.4894C54.0576 14.4264 53.1511 15.4469 52.0719 15.4469C50.9279 15.4469 50.4517 14.297 50.7538 12.5011C51.083 10.5413 52.0204 9.5546 53.0531 9.5546ZM53.3127 8.06445C51.8439 8.06445 49.9266 9.12014 49.3585 12.5011C48.8025 15.8105 50.2874 16.9377 51.822 16.9377C53.3005 16.9377 55.2056 15.8932 55.7776 12.4894C56.3446 9.12014 54.7637 8.06445 53.3127 8.06445Z" fill="black"/>
<path d="M57.0475 8.28809L55.6309 16.7151H56.9335L58.115 9.68455H58.1338L58.1704 16.7151H59.5375L61.9677 9.67282L61.9882 9.66177L60.8021 16.7151H62.1042L63.5202 8.28809H61.5025L59.1954 14.931H59.1767L59.0841 8.28809H57.0475Z" fill="black"/>
<path d="M66.7328 8.06445C64.5656 8.06445 63.8878 9.71917 63.7279 10.6701C63.4201 12.5011 64.3987 12.877 65.4339 13.134L66.124 13.3467C66.7953 13.5574 67.259 13.733 67.1464 14.4023C66.9905 15.3299 66.1279 15.4827 65.579 15.4827C64.8072 15.4827 64.2524 15.1302 64.3852 14.1208H63.0458C62.7443 15.9173 63.6423 16.9377 65.3998 16.9377C66.7295 16.9377 68.1836 16.1982 68.523 14.1799C68.7989 12.5363 67.8596 12.1485 67.1102 11.902L65.6124 11.4091C65.347 11.3277 64.941 11.1983 65.0558 10.5173C65.1821 9.76601 65.856 9.51949 66.3861 9.51949C67.6044 9.51949 67.5657 10.4119 67.54 10.7872H68.8794C69.0436 9.75496 68.7782 8.06445 66.7328 8.06445Z" fill="black"/>
<path d="M70.0944 8.28809L68.6777 16.7151H73.7472L73.9973 15.2244H70.296L70.6632 13.0415H73.918L74.1686 11.5507H70.9133L71.2114 9.77823H74.7549L75.0055 8.28809H70.0944Z" fill="black"/>
<path d="M75.4171 8L74 16.427H78.7158L78.9722 14.9012H75.6518L76.8114 8H75.4171Z" fill="black"/>
<path d="M5.85156 11.5082L8.68012 4.79902L15.8637 3.91113L20.2197 9.73187L17.3916 16.4412L10.2079 17.329L5.85156 11.5082Z" fill="white"/>
<mask id="mask0_494_159570" style="mask-type:luminance" maskUnits="userSpaceOnUse" x="5" y="3" width="16" height="15">
<path d="M5.85156 11.5084L8.68012 4.79916L15.8637 3.91127L20.2197 9.73201L17.3916 16.4413L10.2079 17.3291L5.85156 11.5084Z" fill="white"/>
</mask>
<g mask="url(#mask0_494_159570)">
<path d="M17.8667 17.4441C16.3956 22.1949 13.9635 25.2742 11.594 24.9807C8.7452 24.6289 6.81408 18.7229 7.83137 11.784C8.85087 4.83215 11.8707 -0.194479 14.9065 0.00588226C16.8928 0.136621 18.4381 2.8477 18.8769 6.50701C18.3273 4.43671 17.4982 2.29287 16.0837 2.10483C14.134 1.8459 11.5792 5.81694 10.5279 11.2948C9.5515 16.3833 10.3272 21.4528 12.6074 21.7526C14.0805 21.9459 16.5959 20.392 17.8667 17.4441Z" fill="white"/>
<path d="M19.1728 16.9979C21.8271 15.7895 24.5197 14.3865 24.2652 12.7084C23.8787 10.1632 18.0277 9.20768 12.9005 9.71694C10.6389 9.94136 2.54595 11.5877 2.67318 15.0291C2.71026 16.0308 5.36452 17.3512 7.58585 17.999C4.12817 17.6094 0.637341 15.8752 0.392598 13.7855C0.0234218 10.6244 5.50658 7.37735 12.7254 6.60211C19.8899 5.83391 26.0862 7.71431 26.5113 10.8683C26.8312 13.241 23.7708 15.5287 19.1728 16.9979Z" fill="white"/>
</g>
<path d="M18.995 17.0881L12.0585 17.946L7.85254 12.3261L10.5831 5.84781L17.5204 4.99121L21.7258 10.611L18.995 17.0881Z" fill="#656263"/>
<path d="M17.8667 17.444C16.3956 22.1948 13.9635 25.2746 11.594 24.9806C8.7452 24.6288 6.81408 18.7228 7.83137 11.7846C8.85087 4.83205 11.8707 -0.194578 14.9065 0.00578365C16.8928 0.136522 18.4381 2.84761 18.8769 6.50691C18.3273 4.43661 17.4982 2.29277 16.0837 2.10473C14.134 1.8458 11.5792 5.81684 10.5279 11.2947C9.5515 16.3839 10.3272 21.4527 12.6074 21.7525C14.0805 21.9458 16.5959 20.3919 17.8667 17.444Z" fill="#B0AEAF"/>
<path d="M19.1728 16.998C21.8271 15.7896 24.5197 14.3866 24.2652 12.7085C23.8787 10.1633 18.0277 9.20779 12.9005 9.71706C10.6389 9.94147 2.54595 11.5878 2.67318 15.0299C2.71026 16.0309 5.36452 17.3513 7.58585 17.9991C4.12817 17.6095 0.637341 15.8753 0.392598 13.7856C0.0234218 10.6245 5.50659 7.37746 12.7254 6.60222C19.8899 5.83402 26.0862 7.71442 26.5113 10.8684C26.8312 13.2411 23.7708 15.5288 19.1728 16.998Z" fill="#B0AEAF"/>
<path d="M17.25 16.2525L10.2989 17.1111L6.08398 11.4789L8.82072 4.98824L15.7717 4.12891L19.9864 9.76111L17.25 16.2525Z" fill="#ED1C24"/>
<mask id="mask1_494_159570" style="mask-type:luminance" maskUnits="userSpaceOnUse" x="6" y="4" width="14" height="14">
<path d="M17.25 16.2527L10.2989 17.1113L6.08398 11.4791L8.82072 4.98846L15.7717 4.12913L19.9864 9.76133L17.25 16.2527Z" fill="white"/>
</mask>
<g mask="url(#mask1_494_159570)">
<path d="M17.8667 17.4441C16.3956 22.1949 13.9635 25.2742 11.594 24.9807C8.7452 24.6289 6.81408 18.7229 7.83137 11.784C8.85087 4.83215 11.8707 -0.194479 14.9065 0.00588226C16.8928 0.136621 18.4381 2.8477 18.8769 6.50701C18.3273 4.43671 17.4982 2.29287 16.0837 2.10483C14.134 1.8459 11.5792 5.81694 10.5279 11.2948C9.5515 16.3833 10.3272 21.4528 12.6074 21.7526C14.0805 21.9459 16.5959 20.392 17.8667 17.4441Z" fill="white"/>
<path d="M19.1728 16.9979C21.8271 15.7895 24.5197 14.3865 24.2652 12.7084C23.8787 10.1632 18.0277 9.20768 12.9005 9.71694C10.6389 9.94136 2.54595 11.5877 2.67318 15.0291C2.71026 16.0308 5.36452 17.3512 7.58585 17.999C4.12817 17.6094 0.637341 15.8752 0.392598 13.7855C0.0234218 10.6244 5.50658 7.37735 12.7254 6.60211C19.8899 5.83391 26.0862 7.71431 26.5113 10.8683C26.8312 13.241 23.7708 15.5287 19.1728 16.9979Z" fill="white"/>
</g>
</svg>
