<svg width="32" height="33" viewBox="0 0 32 33" fill="none" xmlns="http://www.w3.org/2000/svg">
<rect y="0.5" width="32" height="32" rx="6" fill="#FBAF17"/>
<g clip-path="url(#clip0_740_1990)">
<path d="M25.7423 22.3748L17.5386 8.76961C17.2154 8.23363 16.6258 7.90067 15.9999 7.90067C15.374 7.90067 14.7845 8.23363 14.4612 8.76965L6.2576 22.3748C5.92358 22.9288 5.9137 23.6228 6.23178 24.1861C6.54995 24.7494 7.1494 25.0993 7.79628 25.0993H24.2036C24.8505 25.0993 25.45 24.7494 25.7682 24.1861C26.0862 23.6227 26.0764 22.9287 25.7423 22.3748ZM24.6343 23.5458C24.5467 23.7008 24.3817 23.7972 24.2036 23.7972H7.79628C7.61819 23.7972 7.45315 23.7009 7.36561 23.5458C7.27803 23.3907 7.28077 23.1996 7.37268 23.0472L15.5764 9.44203C15.6654 9.29449 15.8277 9.20281 16 9.20281C16.1723 9.20281 16.3346 9.29449 16.4235 9.44203L24.6272 23.0472C24.7192 23.1997 24.7219 23.3907 24.6343 23.5458Z" fill="#FFF7E8"/>
<path d="M16.006 13.258C15.5107 13.258 15.1241 13.5238 15.1241 13.995C15.1241 15.4325 15.2932 17.4983 15.2932 18.9359C15.2933 19.3104 15.6195 19.4675 16.0061 19.4675C16.296 19.4675 16.7067 19.3104 16.7067 18.9359C16.7067 17.4984 16.8758 15.4326 16.8758 13.995C16.8758 13.5238 16.4772 13.258 16.006 13.258Z" fill="#FFF7E8"/>
<path d="M16.0182 20.301C15.4866 20.301 15.0879 20.7238 15.0879 21.2312C15.0879 21.7266 15.4866 22.1615 16.0182 22.1615C16.5135 22.1615 16.9363 21.7266 16.9363 21.2312C16.9363 20.7238 16.5134 20.301 16.0182 20.301Z" fill="#FFF7E8"/>
</g>
<defs>
<clipPath id="clip0_740_1990">
<rect width="20" height="20" fill="white" transform="translate(6 6.5)"/>
</clipPath>
</defs>
</svg>
